<?xml version="1.0" standalone="no"?>
<!DOCTYPE svg PUBLIC "-//W3C//DTD SVG 20010904//EN"
 "http://www.w3.org/TR/2001/REC-SVG-20010904/DTD/svg10.dtd">
<svg version="1.0" xmlns="http://www.w3.org/2000/svg"
 width="500.000000pt" height="500.000000pt" viewBox="0 0 500.000000 500.000000"
 preserveAspectRatio="xMidYMid meet">
<metadata>
Created by potrace 1.14, written by Peter Selinger 2001-2017
</metadata>
<g transform="translate(0.000000,500.000000) scale(0.100000,-0.100000)"
fill="#000000" stroke="none">
<path d="M2537 4867 c-178 -100 -314 -248 -383 -418 -40 -99 -73 -242 -80
-348 l-7 -96 -181 0 c-112 0 -204 -5 -241 -13 -298 -66 -533 -210 -691 -424
-72 -97 -189 -346 -171 -364 2 -2 35 14 73 38 146 88 369 180 552 225 94 24
127 27 277 28 112 0 189 -5 225 -14 71 -18 210 -70 210 -80 0 -4 -31 -17 -70
-30 -88 -28 -271 -121 -375 -190 -229 -152 -408 -347 -514 -559 -67 -132 -131
-372 -131 -485 l0 -39 67 73 c150 165 330 324 493 435 85 57 240 136 293 150
l28 7 -20 -39 c-50 -93 -11 -218 81 -263 47 -23 110 -27 153 -11 24 9 26 8 19
-12 -25 -79 -23 -122 8 -183 42 -80 154 -118 241 -82 37 16 107 89 108 115 3
49 19 -72 28 -208 26 -400 -43 -780 -199 -1089 -42 -85 -128 -221 -139 -221
-3 0 -36 23 -74 51 -82 62 -171 173 -226 283 -47 93 -84 196 -71 196 5 0 12
-4 15 -10 3 -5 21 -10 39 -10 62 0 104 69 73 121 -15 26 -14 28 3 34 27 8 60
53 60 80 0 12 -9 34 -21 49 l-20 26 64 0 c73 0 179 -25 292 -69 44 -17 81 -28
83 -26 11 10 -53 97 -108 148 -108 101 -262 157 -432 160 -49 1 -88 5 -88 9 0
4 22 25 50 47 93 73 218 105 389 99 l110 -3 -32 33 c-134 140 -352 177 -536
92 -35 -17 -65 -30 -66 -30 -2 0 -18 24 -35 54 -41 72 -127 150 -193 174 -64
24 -127 34 -127 21 0 -5 14 -38 31 -72 38 -75 69 -162 69 -194 0 -12 -2 -23
-3 -23 -2 0 -39 9 -83 21 -104 28 -256 30 -339 5 -114 -34 -222 -116 -276
-211 -38 -66 -36 -73 10 -36 22 17 66 44 98 59 51 24 69 27 158 27 91 -1 106
-4 167 -32 37 -17 83 -44 103 -59 l36 -27 -55 -54 c-83 -82 -101 -127 -101
-248 0 -112 16 -158 94 -274 39 -57 151 -185 156 -179 2 2 -8 37 -23 78 -20
59 -26 95 -26 170 0 86 2 101 30 160 28 60 113 160 135 160 5 0 9 -33 9 -74 0
-178 59 -380 181 -615 43 -85 78 -155 76 -156 -1 -1 -60 -7 -132 -14 -549 -51
-907 -138 -971 -237 -43 -64 48 -134 246 -189 528 -146 1692 -198 2598 -115
462 43 743 98 895 177 152 80 116 158 -106 231 -124 41 -304 77 -538 106 -199
26 -570 56 -676 56 -33 0 -62 2 -64 5 -3 2 5 60 17 127 96 517 111 1049 43
1498 -38 252 -121 533 -205 703 l-34 67 24 0 c13 0 55 -9 92 -21 249 -77 437
-237 555 -470 72 -145 107 -298 118 -519 l6 -135 23 49 c12 27 40 98 63 159
124 338 159 677 95 928 -73 287 -279 487 -598 579 l-77 23 21 41 c120 238 360
464 575 543 195 71 440 71 653 -1 41 -14 76 -24 78 -22 7 7 -131 116 -206 163
-314 197 -691 225 -1049 79 -162 -66 -345 -182 -523 -330 -39 -32 -73 -57 -75
-54 -3 3 -14 45 -26 94 -25 111 -36 413 -20 553 6 52 9 96 8 97 -2 2 -28 -11
-60 -29z m-326 -2077 c5 0 9 -7 9 -15 0 -21 -14 -19 -36 7 -18 20 -18 21 -1
15 10 -4 23 -7 28 -7z m40 -253 c-13 -13 -26 -3 -16 12 3 6 11 8 17 5 6 -4 6
-10 -1 -17z m229 -61 c0 -5 -7 -3 -15 4 -8 7 -12 17 -9 22 7 10 24 -9 24 -26z"/>
</g>
</svg>
